<?xml version="1.0" encoding="UTF-8" standalone="no"?>
<!-- Created with Inkscape (http://www.inkscape.org/) -->

<svg
   width="52.414001mm"
   height="14.267087mm"
   viewBox="0 0 52.414002 14.267087"
   version="1.1"
   id="svg1"
   xml:space="preserve"
   inkscape:version="1.3.2 (091e20e, 2023-11-25, custom)"
   sodipodi:docname="Forbes India logo.svg"
   xmlns:inkscape="http://www.inkscape.org/namespaces/inkscape"
   xmlns:sodipodi="http://sodipodi.sourceforge.net/DTD/sodipodi-0.dtd"
   xmlns="http://www.w3.org/2000/svg"
   xmlns:svg="http://www.w3.org/2000/svg"><sodipodi:namedview
     id="namedview1"
     pagecolor="#ffffff"
     bordercolor="#000000"
     borderopacity="0.25"
     inkscape:showpageshadow="2"
     inkscape:pageopacity="0.0"
     inkscape:pagecheckerboard="0"
     inkscape:deskcolor="#d1d1d1"
     inkscape:document-units="mm"
     inkscape:zoom="0.70710678"
     inkscape:cx="177.4838"
     inkscape:cy="-176.06959"
     inkscape:window-width="1920"
     inkscape:window-height="1009"
     inkscape:window-x="-8"
     inkscape:window-y="-8"
     inkscape:window-maximized="1"
     inkscape:current-layer="layer1" /><defs
     id="defs1" /><g
     inkscape:label="Layer 1"
     inkscape:groupmode="layer"
     id="layer1"
     transform="translate(6.4678366,-47.718235)"><g
       id="g17"
       transform="matrix(0.12462213,0,0,0.12462213,11.405063,48.905996)"
       style="fill:#33629a;fill-opacity:1"><path
         style="display:inline;fill:#33629a;fill-opacity:1"
         d="m -36.41853,104.79308 c -11.158523,-0.9824 -20.022376,-5.876962 -25.519815,-14.091867 -2.750757,-4.110498 -4.527181,-8.508962 -5.733728,-14.19683 -0.650963,-3.06875 -0.708372,-3.839642 -0.721182,-9.68416 -0.01596,-7.282934 0.28583,-9.528434 1.992063,-14.821953 1.927215,-5.979107 4.462422,-10.159357 8.839414,-14.575121 4.211677,-4.248984 8.537269,-6.924965 14.025438,-8.676685 9.679134,-3.089396 21.624261,-2.464952 30.171946,1.577272 7.5902188,3.589436 13.56153638,10.43608 16.6097268,19.044523 1.7901412,5.055567 2.7184077,11.757461 2.4875979,17.95995 -0.2467502,6.630848 -1.4934183,11.998346 -4.005635,17.246158 -1.86525715,3.896368 -3.7287058,6.602457 -6.566887,9.536393 -6.5820937,6.80416 -15.0603427,10.33205 -25.8644577,10.76248 -1.81901,0.0725 -4.390527,0.0364 -5.714481,-0.0802 z m 7.97138,-4.64854 c 6.192691,-1.612993 9.675694,-8.939635 10.999476,-23.137859 0.40728,-4.368286 0.415632,-16.540361 0.01398,-20.372917 -1.412505,-13.478058 -4.853774,-21.32125 -10.594804,-24.147224 -1.561185,-0.76848 -1.969035,-0.854251 -3.993103,-0.83975 -1.882428,0.01349 -2.525447,0.138728 -3.897808,0.759178 -1.907194,0.862249 -4.019196,2.929186 -5.306335,5.193109 -1.861913,3.274882 -3.335753,9.113583 -4.070186,16.124271 -0.527581,5.036145 -0.450584,19.074106 0.128433,23.415625 1.786041,13.391886 5.984169,21.414678 12.063506,23.053847 1.654487,0.44609 2.804585,0.43417 4.656842,-0.0483 z m 124.452048,4.64366 c -5.746839,-0.37256 -13.059499,-1.42979 -18.891237,-2.7312 l -2.645834,-0.59044 0.02783,-2.374212 C 75.038345,52.794367 74.803432,18.004684 73.919537,13.771264 72.815422,8.483097 70.789408,6.472417 66.067307,5.9784633 L 64.281369,5.791646 V 4.5076183 c 0,-0.99453 0.104393,-1.3147823 0.463021,-1.4204353 1.03209,-0.3040572 31.310564,-6.0477991 31.385974,-5.9538315 0.04478,0.0558 -0.0094,4.447236 -0.120415,9.7587463 -0.216839,10.3752712 -0.304086,25.4000002 -0.147496,25.4000002 0.05262,0 1.098296,-0.469848 2.323732,-1.044107 5.114455,-2.396713 9.808335,-3.456059 15.288165,-3.450334 11.83118,0.01236 21.06969,6.52167 26.22389,18.476929 2.12901,4.93829 3.16438,10.520331 3.16438,17.060312 0,22.761142 -12.41551,38.039032 -33.3375,41.023442 -3.6321,0.51809 -9.35333,0.7 -13.520222,0.42986 z m 10.963382,-6.044478 c 8.01928,-3.948561 13.43471,-17.362655 13.47538,-33.378708 0.0344,-13.537094 -4.11749,-24.49494 -10.71018,-28.266893 -3.17266,-1.815215 -7.65457,-2.110904 -11.850027,-0.781794 l -1.984375,0.628646 -0.08246,8.9845 c -0.08659,9.434981 0.417708,45.267387 0.707349,50.259499 l 0.168862,2.910417 1.190625,0.322732 c 0.689346,0.186855 2.474146,0.298251 4.239206,0.264584 2.86433,-0.05464 3.15719,-0.111627 4.84562,-0.942983 z m 75.40002,6.033838 c -17.26758,-1.41755 -30.25817,-13.249435 -33.13446,-30.179011 -1.97631,-11.632396 0.21825,-23.013696 6.19343,-32.119993 5.42893,-8.273786 13.6447,-13.447839 24.21243,-15.248278 2.96279,-0.504775 10.21755,-0.443493 12.98339,0.109672 12.12081,2.424153 19.90873,10.891714 22.71329,24.69546 0.51908,2.55483 1.07974,7.447894 1.08019,9.427 l 2.2e-4,0.992188 h -22.88646 c -19.07683,0 -22.88646,0.05967 -22.88646,0.358452 0,1.829051 0.66288,7.676293 1.09782,9.68376 2.56071,11.819115 9.70339,19.346935 20.2349,21.325968 3.18993,0.599437 9.14121,0.414372 12.09381,-0.376078 2.32154,-0.621505 5.68338,-2.217092 7.6535,-3.632477 0.71801,-0.515839 1.4537,-0.881008 1.63487,-0.811485 0.18117,0.06952 0.69678,0.590254 1.1458,1.157181 l 0.81639,1.030777 -1.6349,1.902998 c -4.65039,5.412986 -11.78199,9.464256 -19.37589,11.006916 -4.1771,0.84855 -7.53367,1.03883 -11.94187,0.67695 z m 0.84328,-47.750611 c 4.51114,-0.08218 8.78361,-0.217641 9.49437,-0.301018 l 1.29229,-0.151593 -0.15338,-5.195808 c -0.20841,-7.060097 -1.01717,-11.046496 -3.02754,-14.922714 -1.73921,-3.353397 -3.78182,-4.82081 -6.6797,-4.798694 -2.83873,0.02166 -5.41869,1.675054 -7.49697,4.8045 -2.8782,4.333956 -4.80852,10.984472 -5.34655,18.420479 l -0.18913,2.613962 1.95226,-0.159844 c 1.07375,-0.08791 5.6432,-0.227086 10.15435,-0.30927 z m 58.20833,47.765531 c -3.76163,-0.27699 -8.24892,-0.93449 -11.90625,-1.74458 -3.23535,-0.71662 -8.76631,-2.38652 -8.96401,-2.70639 -0.0701,-0.11339 -0.25283,-3.832529 -0.40611,-8.264763 -0.15329,-4.432234 -0.34665,-9.25722 -0.42969,-10.72219 l -0.15097,-2.663582 1.76594,-0.325387 c 0.97126,-0.178962 1.79763,-0.290038 1.83637,-0.246834 0.0387,0.0432 0.3987,0.911989 0.79992,1.930635 2.80701,7.126711 6.87283,12.846782 11.09312,15.606566 4.73873,3.09881 11.44133,3.646437 16.04949,1.311303 4.77849,-2.421441 7.24592,-9.170398 5.2179,-14.272035 -1.43829,-3.618117 -6.15751,-6.733594 -15.43487,-10.189598 -6.88068,-2.56319 -10.42394,-4.503371 -13.44477,-7.361948 -4.16011,-3.936662 -5.92265,-8.747835 -5.67825,-15.499833 0.10839,-2.994566 0.23949,-3.799944 0.97256,-5.974663 1.09986,-3.262821 2.54793,-5.674318 4.88427,-8.133879 3.09428,-3.257471 6.50306,-5.364506 11.22585,-6.938908 7.22393,-2.40819 17.85542,-2.400033 27.5702,0.02115 2.26094,0.563489 5.47968,1.712709 5.93483,2.118982 0.21142,0.188711 1.27794,18.761117 1.08881,18.960415 -0.039,0.04105 -0.85024,0.297528 -1.80284,0.569947 l -1.732,0.495308 -0.96061,-2.780856 c -3.11327,-9.012577 -7.88241,-14.237651 -14.08937,-15.436352 -2.66243,-0.514173 -6.25635,-0.234966 -8.14785,0.632996 -3.00742,1.380033 -4.83925,3.806512 -5.5979,7.415122 -1.54903,7.368107 2.55063,11.449372 18.03332,17.952407 6.99744,2.939063 10.71123,5.181711 13.35042,8.061928 3.59518,3.923505 5.17513,9.368535 4.52732,15.602699 -0.61165,5.886302 -2.33679,9.87959 -5.94627,13.764182 -2.98854,3.216333 -6.45147,5.361298 -11.25222,6.969698 -4.71518,1.57972 -12.05099,2.31642 -18.40634,1.84846 z m -384.83646,-3.78544 v -1.928815 l 3.22198,-0.439243 c 7.926,-1.080532 10.41599,-4.618463 11.31429,-16.076051 1.16158,-14.815851 1.15899,-48.627507 -0.005,-63.103125 -0.51355,-6.387585 -1.6667,-10.3625509 -3.66716,-12.6409508 -1.31839,-1.5015646 -3.61728,-2.4729698 -7.32179,-3.0938577 -1.76241,-0.2953864 -3.28046,-0.5370663 -3.37344,-0.5370663 -0.093,0 -0.16904,-0.8929688 -0.16904,-1.984375 v -1.98437499 h 42.99479 42.994794 V 13.721918 28.224654 l -2.182812,0.644659 c -1.200547,0.354563 -2.286001,0.64466 -2.41212,0.64466 -0.126119,0 -0.789365,-1.607344 -1.473879,-3.571875 C -67.034654,15.785647 -72.066962,9.6919396 -78.981739,7.1898807 -82.369614,5.964004 -84.337123,5.8013729 -94.733216,5.8878897 l -9.392704,0.078167 -0.1748,2.1166666 c -0.54916,6.6502267 -0.82889,15.7902197 -0.83598,27.3159457 -0.004,7.165645 0.0472,13.083698 0.11476,13.151228 0.21638,0.216386 13.474414,-0.630012 14.614474,-0.932993 1.777068,-0.472271 3.580761,-1.586547 4.845875,-2.993658 1.457809,-1.621435 3.270894,-5.350415 4.097435,-8.427214 l 0.621565,-2.313775 2.050521,-0.0013 2.050521,-0.0013 V 51.474448 69.06924 h -2.116667 c -1.62928,0 -2.116666,-0.08457 -2.116666,-0.367277 0,-0.893378 -1.442098,-5.246055 -2.389347,-7.211754 -1.80009,-3.735486 -4.677865,-6.207402 -8.061695,-6.924737 -0.727604,-0.154244 -4.09112,-0.354821 -7.474479,-0.445727 l -6.151567,-0.165284 0.005,6.036035 c 0.0113,13.131229 0.79105,25.720229 1.84946,29.858573 1.00076,3.912916 2.83414,6.421125 5.601249,7.662928 1.291195,0.579454 2.455994,0.822295 5.555582,1.158245 l 3.921857,0.425073 v 1.920295 1.9203 h -27.648958 -27.64896 z m 149.2250018,-0.015 V 99.0482 l 2.710427,-0.45014 c 4.1415942,-0.687823 5.6901592,-1.902916 6.5417972,-5.133069 1.014449,-3.847676 1.774112,-23.269349 1.352657,-34.582268 -0.297258,-7.979159 -0.84312,-14.957551 -1.346218,-17.210288 -0.36382,-1.629087 -1.356414,-3.360172 -2.320217,-4.04646 -0.911184,-0.64882 -3.1100167,-1.274424 -5.2976746,-1.507274 l -1.6665201,-0.177382 0.07902,-1.3499 0.07902,-1.349899 16.1087707,-3.220377 16.10877,-3.220376 -0.177329,8.632645 -0.177328,8.632644 1.444965,-2.716571 c 3.901539,-7.334994 8.653499,-11.702594 15.00522,-13.791532 4.398096,-1.446434 10.190534,-1.108322 13.811522,0.806196 l 0.673453,0.356074 -3.685746,9.789583 c -2.027161,5.384271 -3.774221,9.990356 -3.882355,10.235745 -0.172756,0.392033 -0.400943,0.322631 -1.880855,-0.572047 -0.926336,-0.560014 -2.831336,-1.40522 -4.233334,-1.878235 -2.163275,-0.72986 -3.029632,-0.877406 -5.724086,-0.974847 -4.758946,-0.172101 -8.116316,0.794172 -10.281114,2.95897 l -0.906093,0.906093 -0.22723,4.18716 c -0.338241,6.232747 -0.25112,26.747346 0.136324,32.100702 0.541828,7.486484 1.16213,9.69653 3.214679,11.453436 1.297922,1.110973 2.353093,1.402374 6.573487,1.815365 l 3.209738,0.314093 v 1.939799 1.93981 H 28.430327 5.8084518 Z M 153.44595,6.2306395 V -9.5120687 h 2.11667 2.11667 V 6.2306395 21.973348 h -2.11667 -2.11667 z m 8.73125,0 V -9.5120687 l 1.91823,4.271e-4 1.91823,4.271e-4 1.43953,6.8125937 c 2.2151,10.4830569 2.08144,10.4076153 2.10869,1.1901978 l 0.0237,-8.0036457 h 1.85208 1.85208 V 6.2427283 21.997525 l -1.78477,-0.07823 -1.78477,-0.07824 -1.85325,-8.684966 -1.85325,-8.6849665 -0.0697,8.7511125 -0.0697,8.751112 h -1.84852 -1.84852 z m 15.61042,0.029422 V -9.5120687 h 3.12698 c 3.95523,0 5.45978,0.4091148 6.74787,1.8348696 0.51582,0.5709513 1.06417,1.4930048 1.21857,2.0490077 0.17717,0.6380285 0.28126,5.08860592 0.28219,12.0657665 0.002,12.0467049 -0.0123,12.1715369 -1.53392,13.7734559 -1.33983,1.410541 -2.00092,1.59711 -6.07138,1.713424 l -3.77031,0.107738 z m 6.65142,11.5033285 0.62462,-0.50579 V 6.2634657 c 0,-12.3285219 0.0989,-11.7196668 -1.94797,-11.9942079 L 182.02095,-5.877577 V 6.1958021 18.269181 h 0.89673 c 0.49321,0 1.17781,-0.227605 1.52136,-0.505791 z M 193.66262,6.2306395 V -9.5120687 h 1.98438 1.98437 V 6.2306395 21.973348 h -1.98437 -1.98438 z m 7.9375,15.5550745 c 0,-0.319217 3.69142,-29.5248555 3.84836,-30.4473021 l 0.1479,-0.869311 2.56466,0.075561 2.56466,0.075561 1.90616,15.3458333 c 1.04838,8.4402078 1.91216,15.4946618 1.9195,15.6765628 0.01,0.235946 -0.54691,0.330729 -1.94159,0.330729 h -1.95492 l -0.15012,-0.859896 c -0.0826,-0.472943 -0.23027,-1.723099 -0.32822,-2.778125 l -0.1781,-1.918229 h -1.92536 -1.92536 l -0.1513,1.256771 c -0.0832,0.691224 -0.22716,1.94138 -0.31989,2.778125 l -0.1686,1.521354 h -1.95389 c -1.07464,0 -1.95389,-0.08444 -1.95389,-0.187634 z m 7.9375,-9.680819 c 0,-0.33442 -0.29766,-3.4422666 -0.66146,-6.9063256 -0.3638,-3.464059 -0.66146,-6.4249739 -0.66146,-6.5798108 0,-0.154837 -0.058,-0.2235344 -0.12886,-0.1526609 -0.15251,0.1525138 -1.45838,12.1382583 -1.45853,13.3869373 l -1.1e-4,0.859896 h 1.45521 c 1.34174,0 1.45521,-0.04741 1.45521,-0.608036 z"
         id="path17" /></g></g></svg>
